<?xml version="1.0" standalone="no"?>
<svg xmlns="http://www.w3.org/2000/svg" viewBox="0 0 80.016 36" width="80.016" height="36"><g fill="#a8be9b" color="#a8be9b" transform="translate(0 6) scale(0.5853659)"><svg width="35.0" height="41.0" x="0.0" y="0.0" viewBox="0 0 35 41"><path fill="currentColor" fill-rule="nonzero" d="M17.6 40.82C7.91 40.82.88 34.03.88 24.34v-2.02c0-.49.25-.49.39-.49 1.08 0 3.89 2.31 5.41 4.52.79 1.13 1.03 1.87.98 2.21h-.2c-.49 0-1.18-.15-1.43-.2l-.89-.25.3.89c1.67 4.67 4.67 7.23 9.74 8.07l.49.1V21.15h-5.51c-1.03 0-1.28-.93-1.28-1.72 0-.79.2-1.72 1.28-1.72h5.46v-5.02l-.2-.1a6.198 6.198 0 0 1-4.13-5.85c0-3.1 2.36-5.75 5.41-6.15.34-.1.59-.1.89-.1.25 0 .54.05.84.1 3.1.39 5.41 3.05 5.41 6.15 0 2.61-1.57 4.97-4.03 5.85l-.25.1v5.02h5.46c1.03 0 1.28.93 1.28 1.72 0 .79-.25 1.72-1.28 1.72h-5.46v16.03l.44-.1c5.07-.84 8.11-3.44 9.79-8.07l.3-.89-.89.25s-.84.2-1.43.2h-.25c-.05-.39.15-1.13.98-2.31 1.52-2.21 4.33-4.43 5.41-4.43.15 0-.05 0 .44.54v2.02c-.03 9.65-7.06 16.43-16.75 16.43zm0-37.32a3.25 3.25 0 0 0-3.25 3.25c0 1.82 1.43 3.25 3.25 3.25a3.25 3.25 0 1 0 0-6.5z"></path></svg></g><path fill="#09675b" fill-rule="nonzero" d="M7.99 16.80L0 16.80L0 15.70L2.21 15.17L2.21 1.63L0 1.10L0 0L6.89 0Q12.74 0 12.74 4.08L12.74 4.08Q12.74 5.40 11.96 6.38Q11.18 7.37 9.84 7.80L9.84 7.80L9.84 7.85Q11.81 8.21 12.88 9.31Q13.94 10.42 13.94 12.07L13.94 12.07Q13.94 14.23 12.34 15.52Q10.73 16.80 7.99 16.80L7.99 16.80ZM5.16 8.83L5.16 15.34L7.25 15.34Q9 15.34 9.96 14.50Q10.92 13.66 10.92 12.07L10.92 12.07Q10.92 10.61 9.92 9.72Q8.93 8.83 7.13 8.83L7.13 8.83L5.16 8.83ZM5.16 1.46L5.16 7.32L6.53 7.32Q7.92 7.32 8.82 6.52Q9.72 5.71 9.72 4.30L9.72 4.30Q9.72 2.86 8.82 2.16Q7.92 1.46 6.38 1.46L6.38 1.46L5.16 1.46ZM22.37 4.44L22.37 4.44Q25.01 4.44 26.74 6.23Q28.46 8.02 28.46 10.78L28.46 10.78Q28.46 13.56 26.74 15.36Q25.01 17.16 22.37 17.16L22.37 17.16Q19.73 17.16 17.99 15.36Q16.25 13.56 16.25 10.78L16.25 10.78Q16.25 8.02 17.99 6.23Q19.73 4.44 22.37 4.44ZM22.37 5.76L22.37 5.76Q20.88 5.76 20.08 7.13Q19.27 8.50 19.27 10.78L19.27 10.78Q19.27 13.06 20.08 14.45Q20.88 15.84 22.37 15.84L22.37 15.84Q23.86 15.84 24.66 14.44Q25.46 13.03 25.46 10.78L25.46 10.78Q25.46 8.50 24.66 7.13Q23.86 5.76 22.37 5.76ZM30.31 13.82L30.31 13.82Q30.31 9.67 37.68 9.67L37.68 9.67L37.68 8.83Q37.68 6.74 37.09 6.18Q36.50 5.62 35.26 5.62L35.26 5.62L32.45 8.02Q31.87 7.66 31.48 7.00Q31.08 6.34 31.06 5.59L31.06 5.59Q32.06 5.04 33.26 4.74Q34.46 4.44 35.64 4.44L35.64 4.44Q40.56 4.44 40.56 8.57L40.56 8.57L40.56 15.24L42.43 15.24L42.43 16.03Q41.88 16.56 41.21 16.86Q40.54 17.16 39.89 17.16L39.89 17.16Q38.47 17.16 37.80 15.94L37.80 15.94Q36.19 17.16 34.18 17.16L34.18 17.16Q32.59 17.16 31.45 16.32Q30.31 15.48 30.31 13.82ZM33.34 13.73L33.34 13.73Q33.34 14.62 33.92 15.05Q34.51 15.48 35.42 15.48L35.42 15.48Q36.74 15.48 37.68 14.66L37.68 14.66L37.68 10.90Q35.52 10.90 34.43 11.68Q33.34 12.46 33.34 13.73ZM44.83 6.24L43.56 6.24L43.56 5.52L46.97 2.62L47.69 2.62L47.69 4.94L51.14 4.80L51.14 6.24L47.69 6.24L47.69 13.58Q47.69 15.72 49.39 15.72L49.39 15.72Q50.11 15.72 51.12 15.29L51.12 15.29L51.53 16.39Q50.04 17.16 48.46 17.16L48.46 17.16Q46.73 17.16 45.78 16.33Q44.83 15.50 44.83 13.46L44.83 13.46L44.83 6.24Z" transform="translate(28.488, 9.6)"></path></svg>